<svg xmlns="http://www.w3.org/2000/svg" viewBox="0 0 100 100" width="100" height="100" fill="currentColor" role="img" aria-label="Centurion">
  <title>Centurion</title>
  <path d="M92.54 24.81C91.22 25.73 88.62 27.81 84.58 30.33C80.53 32.86 70.97 38.37 68.25 39.97L50.39 29.31L32.39 39.33L32.52 60.03L49.87 70.18L93.44 45.5L93.32 75.06C91.8 75.96 91.5 76.31 84.19 80.46C76.89 84.62 55.27 96.74 49.49 100L6.56 74.68L6.94 24.81C7.11 24.68 4.46 26.01 7.97 24.04C11.48 22.07 21.19 16.92 28.02 12.98C34.85 9.04 45.22 2.55 48.97 0.39C52.72 -1.78 50.26 0.06 50.51 0L92.54 24.81ZM16.32 29.82L16.07 69.41C20.54 72.07 37.19 82.01 42.93 85.35C48.67 88.69 49.25 88.77 50.51 89.46L84.32 69.41L84.06 61.95L50.13 80.98L23.78 65.3L23.91 34.45L49.61 19.15L50.64 19.15L67.74 29.69L68.64 29.69L75.06 25.71L75.19 24.81L49.36 10.54L16.32 29.82Z"/>
</svg>
