<svg xmlns="http://www.w3.org/2000/svg" viewBox="0 0 100 100" width="100" height="100" fill="none" role="img" aria-label="NightCrawler">
  <title>NightCrawler</title>
  <defs>
    <clipPath id="nightcrawler-clip"><path d="M3.53 -0L31.09 0.16L79.81 49.04L80.29 48.88L80.29 0.16L99.2 -0L99.68 96.15L3.53 -0ZM0.32 3.21L96.96 100L69.39 99.84L20.19 50.64L19.87 99.84L0.8 99.84L0.32 3.21Z"/></clipPath>
    <linearGradient id="nightcrawler-sheen" x1="0.08" y1="0" x2="0.62" y2="1">
      <stop offset="0" stop-color="#fff" stop-opacity="0.62"/>
      <stop offset="0.42" stop-color="#fff" stop-opacity="0.10"/>
      <stop offset="1" stop-color="#fff" stop-opacity="0"/>
    </linearGradient>
    <radialGradient id="nightcrawler-bloom" cx="0.28" cy="0.20" r="0.8">
      <stop offset="0" stop-color="#fff" stop-opacity="0.42"/>
      <stop offset="1" stop-color="#fff" stop-opacity="0"/>
    </radialGradient>
    <filter id="nightcrawler-lift" x="-35%" y="-35%" width="170%" height="170%">
      <feDropShadow dx="0" dy="1.6" stdDeviation="2.4" flood-color="#000" flood-opacity="0.36"/>
      <feDropShadow dx="0" dy="0" stdDeviation="4" flood-color="#9165e6" flood-opacity="0.45"/>
    </filter>
  </defs>
  <g filter="url(#nightcrawler-lift)">
    <path d="M3.53 -0L31.09 0.16L79.81 49.04L80.29 48.88L80.29 0.16L99.2 -0L99.68 96.15L3.53 -0ZM0.32 3.21L96.96 100L69.39 99.84L20.19 50.64L19.87 99.84L0.8 99.84L0.32 3.21Z" fill="#9165e6" fill-opacity="0.92"/>
    <g clip-path="url(#nightcrawler-clip)">
      <rect width="100" height="100" fill="url(#nightcrawler-sheen)"/>
      <rect width="100" height="100" fill="url(#nightcrawler-bloom)"/>
    </g>
    <path d="M3.53 -0L31.09 0.16L79.81 49.04L80.29 48.88L80.29 0.16L99.2 -0L99.68 96.15L3.53 -0ZM0.32 3.21L96.96 100L69.39 99.84L20.19 50.64L19.87 99.84L0.8 99.84L0.32 3.21Z" fill="none" stroke="#fff" stroke-opacity="0.38" stroke-width="0.9"
          stroke-linejoin="round"/>
  </g>
</svg>
