<svg xmlns="http://www.w3.org/2000/svg" viewBox="0 0 100 100" width="100" height="100" fill="currentColor" role="img" aria-label="Optimus">
  <title>Optimus</title>
  <path d="M18.7 85.09L18.7 83.6C18.9 83.36 17.95 83.9 19.92 82.11C21.88 80.33 28.73 74.44 30.49 72.9C31.98 73.85 36.77 77.24 39.43 78.59C42.1 79.95 44.35 80.51 46.48 81.03C48.6 81.55 50.23 81.66 52.17 81.71C54.11 81.75 55.87 81.75 58.13 81.3C60.39 80.85 63.1 80.26 65.72 79C68.34 77.73 71.54 75.68 73.85 73.71C76.15 71.75 78.07 69.35 79.54 67.21C81.01 65.06 81.82 63.55 82.66 60.84C83.49 58.13 84.37 53.93 84.55 50.95C84.73 47.97 84.46 45.75 83.74 42.95C83.02 40.15 81.53 36.59 80.22 34.15C78.91 31.71 77.62 30.13 75.88 28.32C74.14 26.51 71.61 24.57 69.78 23.31C67.95 22.04 66.51 21.41 64.91 20.73C63.3 20.05 62.42 19.63 60.16 19.24C57.9 18.86 53.73 18.45 51.36 18.43C48.98 18.41 47.7 18.72 45.93 19.11C44.17 19.49 43.38 19.4 40.79 20.73C38.19 22.06 32.09 26.04 30.35 27.1C28.52 25.5 21.34 19.29 19.38 17.48C17.41 15.67 18.7 16.46 18.56 16.26L18.83 14.91C19.78 14.11 22 11.79 24.53 10.16C27.06 8.54 30.8 6.44 34.01 5.15C37.22 3.86 40.63 3 43.77 2.44C46.91 1.87 49.8 1.69 52.85 1.76C55.89 1.83 59.26 2.28 62.06 2.85C64.86 3.41 66.98 4.04 69.65 5.15C72.31 6.26 75.45 7.81 78.05 9.49C80.65 11.16 82.88 12.85 85.23 15.18C87.58 17.5 90.31 20.8 92.14 23.44C93.97 26.08 95.05 28.23 96.21 31.03C97.36 33.83 98.42 37.24 99.05 40.24C99.68 43.25 100 45.8 100 49.05C100 52.3 99.64 56.57 99.05 59.76C98.46 62.94 97.63 65.38 96.48 68.16C95.33 70.93 93.72 73.96 92.14 76.42C90.56 78.88 89.27 80.62 86.99 82.93C84.71 85.23 81.14 88.35 78.46 90.24C75.77 92.14 73.71 93.13 70.87 94.31C68.02 95.48 64.41 96.64 61.38 97.29C58.36 97.94 55.83 98.22 52.71 98.24C49.59 98.26 45.89 98.01 42.68 97.43C39.48 96.84 36.38 95.89 33.47 94.72C30.56 93.54 27.66 91.98 25.2 90.38C22.74 88.78 19.78 85.98 18.7 85.09ZM2.44 12.47C7.93 17.21 28.36 34.64 35.37 40.92C42.37 47.2 42.93 48.6 44.44 50.14L0 92.01L2.98 68.7L22.76 50.27L4.07 32.52L2.44 12.47Z"/>
</svg>
