<svg xmlns="http://www.w3.org/2000/svg" viewBox="0 0 100 100" width="100" height="100" fill="currentColor" role="img" aria-label="SPEDA">
  <title>SPEDA</title>
  <path d="M61.95 6.75L62.08 7.4C54.91 11.49 26.32 27.81 19.09 31.95C11.86 36.08 18.77 32.16 18.7 32.21C18.68 32.6 18.59 33.25 18.57 34.55C18.55 35.84 18.57 39.09 18.57 40C18.66 40.06 16.36 38.87 19.09 40.39C21.82 41.9 27.79 44.91 34.94 49.09C42.08 53.27 57.45 62.73 61.95 65.45C60.04 66.62 52.68 71.21 50.52 72.47C48.35 73.72 49.22 72.9 48.96 72.99C44.81 70.48 31.19 62.12 24.03 57.92C16.86 53.72 8.98 49.48 5.97 47.79L6.23 25.84L6.75 25.06C11.36 22.42 27.29 13.4 34.42 9.22C41.54 5.04 46.97 1.54 49.48 0C49.7 0.04 48.7 -0.87 50.78 0.26C52.86 1.39 60.09 5.67 61.95 6.75ZM94.03 39.48L63.51 21.3L74.94 14.55C77.9 16.23 89.59 22.86 92.73 24.68C95.87 26.49 93.59 25.32 93.77 25.45L94.03 39.48ZM93.64 52.34L93.25 74.81L50.26 100L37.79 93.12L37.92 92.6C39.44 91.71 39.89 91.34 47.01 87.27C54.13 83.2 74.96 71.47 80.65 68.18C86.34 64.89 81.08 67.64 81.17 67.53C81.19 66.56 81.3 62.88 81.3 61.69C81.3 60.5 81.19 60.61 81.17 60.39C81.06 60.28 83.35 61.34 80.52 59.74C77.68 58.14 70.35 54.33 64.16 50.78C57.97 47.23 47.71 41.02 43.38 38.44C39.05 35.87 39.05 35.84 38.18 35.32L38.31 34.68L49.87 27.53L51.17 27.53C54.91 29.81 66.56 37.03 73.64 41.17C80.71 45.3 90.3 50.48 93.64 52.34ZM6.1 61.04C6.9 61.45 5.8 60.5 10.91 63.51C16.02 66.52 32.45 76.49 36.75 79.09L25.06 85.84C22.16 84.18 10.78 77.71 7.66 75.84C4.55 73.98 6.58 74.87 6.36 74.68L6.1 61.04Z"/>
</svg>
