<svg xmlns="http://www.w3.org/2000/svg" viewBox="0 0 100 100" width="100" height="100" fill="none" role="img" aria-label="Ultron">
  <title>Ultron</title>
  <defs>
    <clipPath id="ultron-clip"><path d="M7.4 0L30.58 18.35L30.58 59.32L48.08 69.7L48.36 100C43.62 96.59 26.67 84.12 19.91 79.52C13.16 74.92 9.84 73.59 7.82 72.4L7.4 0ZM92.6 0L92.18 72.4C90.28 73.49 87.55 74.35 80.8 78.95C74.04 83.55 56.5 96.49 51.64 100L52.06 69.56L69.42 59.46L69.42 18.49L92.6 0Z"/></clipPath>
    <linearGradient id="ultron-sheen" x1="0.08" y1="0" x2="0.62" y2="1">
      <stop offset="0" stop-color="#fff" stop-opacity="0.62"/>
      <stop offset="0.42" stop-color="#fff" stop-opacity="0.10"/>
      <stop offset="1" stop-color="#fff" stop-opacity="0"/>
    </linearGradient>
    <radialGradient id="ultron-bloom" cx="0.28" cy="0.20" r="0.8">
      <stop offset="0" stop-color="#fff" stop-opacity="0.42"/>
      <stop offset="1" stop-color="#fff" stop-opacity="0"/>
    </radialGradient>
    <filter id="ultron-lift" x="-35%" y="-35%" width="170%" height="170%">
      <feDropShadow dx="0" dy="1.6" stdDeviation="2.4" flood-color="#000" flood-opacity="0.36"/>
      <feDropShadow dx="0" dy="0" stdDeviation="4" flood-color="#8a93a6" flood-opacity="0.45"/>
    </filter>
  </defs>
  <g filter="url(#ultron-lift)">
    <path d="M7.4 0L30.58 18.35L30.58 59.32L48.08 69.7L48.36 100C43.62 96.59 26.67 84.12 19.91 79.52C13.16 74.92 9.84 73.59 7.82 72.4L7.4 0ZM92.6 0L92.18 72.4C90.28 73.49 87.55 74.35 80.8 78.95C74.04 83.55 56.5 96.49 51.64 100L52.06 69.56L69.42 59.46L69.42 18.49L92.6 0Z" fill="#8a93a6" fill-opacity="0.92"/>
    <g clip-path="url(#ultron-clip)">
      <rect width="100" height="100" fill="url(#ultron-sheen)"/>
      <rect width="100" height="100" fill="url(#ultron-bloom)"/>
    </g>
    <path d="M7.4 0L30.58 18.35L30.58 59.32L48.08 69.7L48.36 100C43.62 96.59 26.67 84.12 19.91 79.52C13.16 74.92 9.84 73.59 7.82 72.4L7.4 0ZM92.6 0L92.18 72.4C90.28 73.49 87.55 74.35 80.8 78.95C74.04 83.55 56.5 96.49 51.64 100L52.06 69.56L69.42 59.46L69.42 18.49L92.6 0Z" fill="none" stroke="#fff" stroke-opacity="0.38" stroke-width="0.9"
          stroke-linejoin="round"/>
  </g>
</svg>
